HIERARCHY
ROOT hip
{
  OFFSET 0 0 0
  CHANNELS 6 Xposition Yposition Zposition Zrotation Yrotation Xrotation
  JOINT abdomen
  {
    OFFSET 0 20.6881 -0.73152
    CHANNELS 3 Zrotation Xrotation Yrotation
    JOINT chest
    {
      OFFSET 0 11.7043 -0.48768
      CHANNELS 3 Zrotation Xrotation Yrotation
      JOINT neck
      {
        OFFSET 0 22.1894 -2.19456
        CHANNELS 3 Zrotation Xrotation Yrotation
        JOINT head
        {
          OFFSET -0.24384 7.07133 1.2192
          CHANNELS 3 Zrotation Xrotation Yrotation
          JOINT leftEye
          {
            OFFSET 4.14528 8.04674 8.04672
            CHANNELS 3 Zrotation Xrotation Yrotation
            End Site
            {
              OFFSET 1 0 0
            }
          }
          JOINT rightEye
          {
            OFFSET -3.6576 8.04674 8.04672
            CHANNELS 3 Zrotation Xrotation Yrotation
            End Site
            {
              OFFSET 1 0 0
            }
          }
        }
      }
      JOINT rCollar
      {
        OFFSET -2.68224 19.2634 -4.8768
        CHANNELS 3 Zrotation Xrotation Yrotation
        JOINT rShldr
        {
          OFFSET -8.77824 -1.95073 1.46304
          CHANNELS 3 Zrotation Xrotation Yrotation
          JOINT rForeArm
          {
            OFFSET -28.1742 -1.7115 0.48768
            CHANNELS 3 Zrotation Xrotation Yrotation
            JOINT rHand
            {
              OFFSET -22.5879 0.773209 7.07136
              CHANNELS 3 Zrotation Xrotation Yrotation
              JOINT rThumb1
              {
                OFFSET -1.2192 -0.487915 3.41376
                CHANNELS 3 Zrotation Xrotation Yrotation
                JOINT rThumb2
                {
                  OFFSET -3.37035 -0.52449 3.41376
                  CHANNELS 3 Zrotation Xrotation Yrotation
                  End Site
                  {
                    OFFSET -1.78271 -1.18214 1.43049
                  }
                }
              }
              JOINT rIndex1
              {
                OFFSET -7.75947 0.938293 5.60832
                CHANNELS 3 Zrotation Xrotation Yrotation
                JOINT rIndex2
                {
                  OFFSET -2.54057 -0.884171 1.56538
                  CHANNELS 3 Zrotation Xrotation Yrotation
                  End Site
                  {
                    OFFSET -1.62519 -0.234802 1.16502
                  }
                }
              }
              JOINT rMid1
              {
                OFFSET -8.24714 1.18213 3.41376
                CHANNELS 3 Zrotation Xrotation Yrotation
                JOINT rMid2
                {
                  OFFSET -3.10165 -0.590103 1.0647
                  CHANNELS 3 Zrotation Xrotation Yrotation
                  End Site
                  {
                    OFFSET -2.48547 -0.328903 0.83742
                  }
                }
              }
              JOINT rRing1
              {
                OFFSET -8.82822 0.546677 1.51678
                CHANNELS 3 Zrotation Xrotation Yrotation
                JOINT rRing2
                {
                  OFFSET -2.60934 -0.819778 -0.0198488
                  CHANNELS 3 Zrotation Xrotation Yrotation
                  End Site
                  {
                    OFFSET -2.33842 -0.294052 0.168128
                  }
                }
              }
              JOINT rPinky1
              {
                OFFSET -8.27202 -0.0477905 -0.4584
                CHANNELS 3 Zrotation Xrotation Yrotation
                JOINT rPinky2
                {
                  OFFSET -1.82734 -0.647385 -0.700984
                  CHANNELS 3 Zrotation Xrotation Yrotation
                  End Site
                  {
                    OFFSET -1.69225 -0.51767 -0.607171
                  }
                }
              }
            }
          }
        }
      }
      JOINT lCollar
      {
        OFFSET 2.68224 19.2634 -4.8768
        CHANNELS 3 Zrotation Xrotation Yrotation
        JOINT lShldr
        {
          OFFSET 8.77824 -1.95073 1.46304
          CHANNELS 3 Zrotation Xrotation Yrotation
          JOINT lForeArm
          {
            OFFSET 28.1742 -1.7115 0.48768
            CHANNELS 3 Zrotation Xrotation Yrotation
            JOINT lHand
            {
              OFFSET 22.5879 0.773209 7.07136
              CHANNELS 3 Zrotation Xrotation Yrotation
              JOINT lThumb1
              {
                OFFSET 1.2192 -0.487915 3.41376
                CHANNELS 3 Zrotation Xrotation Yrotation
                JOINT lThumb2
                {
                  OFFSET 3.37035 -0.52449 3.41376
                  CHANNELS 3 Zrotation Xrotation Yrotation
                  End Site
                  {
                    OFFSET 1.78271 -1.18214 1.43049
                  }
                }
              }
              JOINT lIndex1
              {
                OFFSET 7.75947 0.938293 5.60832
                CHANNELS 3 Zrotation Xrotation Yrotation
                JOINT lIndex2
                {
                  OFFSET 2.54057 -0.884171 1.56538
                  CHANNELS 3 Zrotation Xrotation Yrotation
                  End Site
                  {
                    OFFSET 1.62519 -0.234802 1.16502
                  }
                }
              }
              JOINT lMid1
              {
                OFFSET 8.24714 1.18213 3.41376
                CHANNELS 3 Zrotation Xrotation Yrotation
                JOINT lMid2
                {
                  OFFSET 3.10165 -0.590103 1.0647
                  CHANNELS 3 Zrotation Xrotation Yrotation
                  End Site
                  {
                    OFFSET 2.48547 -0.328903 0.83742
                  }
                }
              }
              JOINT lRing1
              {
                OFFSET 8.82822 0.546677 1.51678
                CHANNELS 3 Zrotation Xrotation Yrotation
                JOINT lRing2
                {
                  OFFSET 2.60934 -0.819778 -0.0198488
                  CHANNELS 3 Zrotation Xrotation Yrotation
                  End Site
                  {
                    OFFSET 2.33842 -0.294052 0.168128
                  }
                }
              }
              JOINT lPinky1
              {
                OFFSET 8.27202 -0.0477905 -0.4584
                CHANNELS 3 Zrotation Xrotation Yrotation
                JOINT lPinky2
                {
                  OFFSET 1.82734 -0.647385 -0.700984
                  CHANNELS 3 Zrotation Xrotation Yrotation
                  End Site
                  {
                    OFFSET 1.69225 -0.51767 -0.607171
                  }
                }
              }
            }
          }
        }
      }
    }
  }
  JOINT rButtock
  {
    OFFSET -8.77824 4.35084 1.2192
    CHANNELS 3 Zrotation Xrotation Yrotation
    JOINT rThigh
    {
      OFFSET 0 -1.70687 -2.19456
      CHANNELS 3 Zrotation Xrotation Yrotation
      JOINT rShin
      {
        OFFSET 0 -36.8199 0.73152
        CHANNELS 3 Zrotation Xrotation Yrotation
        JOINT rFoot
        {
          OFFSET 0.73152 -45.1104 -5.12064
          CHANNELS 3 Zrotation Xrotation Yrotation
          End Site
          {
            OFFSET -1.1221 -3.69964 12.103
          }
        }
      }
    }
  }
  JOINT lButtock
  {
    OFFSET 8.77824 4.35084 1.2192
    CHANNELS 3 Zrotation Xrotation Yrotation
    JOINT lThigh
    {
      OFFSET 0 -1.70687 -2.19456
      CHANNELS 3 Zrotation Xrotation Yrotation
      JOINT lShin
      {
        OFFSET 0 -36.8199 0.73152
        CHANNELS 3 Zrotation Xrotation Yrotation
        JOINT lFoot
        {
          OFFSET -0.73152 -45.1104 -5.12064
          CHANNELS 3 Zrotation Xrotation Yrotation
          End Site
          {
            OFFSET 1.1221 -3.69964 12.103
          }
        }
      }
    }
  }
}
MOTION
Frames:	4
Frame Time:	0.00833333
62.3367 81.1024 -11.7746 -117.28 -85.4273 126.408 7.49688 21.1316 6.23668 -0.412983 -6.44277 1.96097 -0.995111 -1.4669 13.5236 1.81088 -10.5357 27.3712 -0.0 0.0 0.0 -0.0 0.0 0.0 -3.89691e-14 7.45357e-13 -1.54354e-13 39.3103 54.6914 57.9613 -15.3344 -8.08409 28.2779 -6.29129 -55.6441 -11.8743 8.47504e-10 -2.47895e-10 -3.65725e-10 1.47475e-09 -2.8889e-10 -5.94354e-10 8.47511e-10 -2.47901e-10 -3.65742e-10 7.73091 5.47488 0.417314 8.47502e-10 -2.47894e-10 -3.65723e-10 2.90554 0.965183 0.102902 8.4751e-10 -2.47894e-10 -3.65726e-10 10.2786 0.731801 0.0259123 8.475e-10 -2.47893e-10 -3.65722e-10 2.22167 -0.733487 -0.20892 -3.90002e-14 7.45357e-13 -1.54592e-13 -47.1934 65.8785 -58.1901 18.3224 -11.037 -34.7489 14.0024 -68.193 20.5636 5.9382e-10 -1.57315e-09 1.51975e-09 9.30531e-10 -2.66959e-09 2.64685e-09 5.9381e-10 -1.57315e-09 1.51976e-09 -7.73091 5.47488 -0.417314 5.9382e-10 -1.57315e-09 1.51975e-09 -2.90554 0.965183 -0.102902 5.93813e-10 -1.57315e-09 1.51976e-09 -10.2786 0.731801 -0.0259123 5.93825e-10 -1.57315e-09 1.51975e-09 -2.22167 -0.733487 0.20892 -2.03217e-16 0.0 -3.88251e-19 -8.05157 -36.3798 -3.68836 -0.490884 45.0568 0.678177 -2.38221 -16.0664 -3.97591 2.03217e-16 0.0 3.88251e-19 17.313 -41.7902 2.37568 0.35175 42.2339 -0.716091 -0.707528 -8.3149 -5.50631
62.3329 81.1049 -11.7251 -119.893 -85.3537 129.043 7.51084 21.1696 5.75413 -0.39912 -6.39917 1.82663 -1.08862 -1.32844 13.7395 1.88148 -10.7715 27.8405 -0.0 0.0 0.0 -0.0 0.0 0.0 -7.24077e-15 5.66114e-13 -9.25809e-14 41.3164 54.521 55.0546 -15.7903 -8.4917 29.2388 -7.19525 -57.8992 -12.9556 4.38849e-10 -7.06718e-11 -1.21434e-10 7.61053e-10 -8.72094e-13 -1.92346e-10 4.38857e-10 -7.06773e-11 -1.21447e-10 7.73091 5.47488 0.417314 4.38849e-10 -7.06705e-11 -1.21429e-10 2.90554 0.965183 0.102902 4.38855e-10 -7.06721e-11 -1.21436e-10 10.2786 0.731801 0.0259123 4.38845e-10 -7.06703e-11 -1.2143e-10 2.22167 -0.733487 -0.20892 -7.29894e-15 5.66114e-13 -9.28045e-14 -44.4284 66.1968 -60.8517 18.1841 -10.8855 -34.4358 12.4183 -66.4752 18.8444 2.03714e-10 -1.51064e-09 1.45721e-09 2.66544e-10 -2.52549e-09 2.51981e-09 2.03707e-10 -1.51064e-09 1.45723e-09 -7.73091 5.47488 -0.417314 2.03714e-10 -1.51065e-09 1.45722e-09 -2.90554 0.965183 -0.102902 2.03708e-10 -1.51064e-09 1.45722e-09 -10.2786 0.731801 -0.0259123 2.03718e-10 -1.51064e-09 1.45722e-09 -2.22167 -0.733487 0.20892 -2.03217e-16 0.0 -3.88251e-19 -7.99885 -36.4303 -3.4364 -0.489706 45.0177 0.677862 -2.39585 -16.0306 -4.01257 2.03217e-16 0.0 3.88251e-19 17.297 -41.7218 2.44191 0.351752 42.2354 -0.717948 -0.680941 -8.33303 -5.38968
62.3265 81.1097 -11.6677 -122.743 -85.2504 131.915 7.5192 21.2061 5.31372 -0.398895 -6.35726 1.70317 -1.18555 -1.19245 13.9449 1.95082 -10.9863 28.2889 -0.0 0.0 0.0 -0.0 0.0 0.0 2.03672e-14 3.33509e-13 -2.75919e-14 43.3941 54.2579 52.1231 -16.2708 -8.93735 30.2587 -8.1613 -59.9931 -14.0873 4.38274e-11 1.06914e-10 1.47967e-10 6.9163e-11 2.81351e-10 2.53304e-10 4.38345e-11 1.0691e-10 1.47959e-10 7.73091 5.47488 0.417314 4.38276e-11 1.06916e-10 1.47976e-10 2.90554 0.965183 0.102902 4.38325e-11 1.06913e-10 1.47966e-10 10.2786 0.731801 0.0259123 4.38237e-11 1.06915e-10 1.47973e-10 2.22167 -0.733487 -0.20892 2.02744e-14 3.33509e-13 -2.78007e-14 -41.5294 66.4008 -63.6523 18.051 -10.7415 -34.1351 10.9162 -64.5554 17.1934 -2.28299e-10 -1.33825e-09 1.27642e-09 -4.62609e-10 -2.19489e-09 2.18711e-09 -2.28302e-10 -1.33824e-09 1.27644e-09 -7.73091 5.47488 -0.417314 -2.28298e-10 -1.33826e-09 1.27643e-09 -2.90554 0.965183 -0.102902 -2.28304e-10 -1.33825e-09 1.27643e-09 -10.2786 0.731801 -0.0259123 -2.28296e-10 -1.33824e-09 1.27643e-09 -2.22167 -0.733487 0.20892 -2.03217e-16 0.0 -3.88251e-19 -7.94396 -36.4761 -3.16534 -0.488154 44.9646 0.677135 -2.40345 -15.9894 -4.03497 2.03217e-16 0.0 3.88251e-19 17.2838 -41.6397 2.52619 0.351706 42.237 -0.720029 -0.651136 -8.35452 -5.25882
62.306 81.124 -11.6007 -125.692 -85.1188 134.882 7.52583 21.2444 4.91583 -0.410331 -6.32153 1.59103 -1.27826 -1.0628 14.1408 2.02501 -11.1751 28.7166 -0.0 0.0 0.0 -0.0 0.0 0.0 3.74319e-14 1.92523e-13 1.36168e-14 45.5844 53.8822 49.1422 -16.7825 -9.43501 31.3425 -9.26788 -62.0404 -15.3532 -1.89491e-10 2.61282e-10 3.65462e-10 -3.43316e-10 5.24451e-10 6.17613e-10 -1.89484e-10 2.61279e-10 3.65455e-10 7.73091 5.47488 0.417314 -1.8949e-10 2.61284e-10 3.65471e-10 2.90554 0.965183 0.102902 -1.89486e-10 2.6128e-10 3.6546e-10 10.2786 0.731801 0.0259123 -1.89495e-10 2.61282e-10 3.65468e-10 2.22167 -0.733487 -0.20892 3.73136e-14 1.92523e-13 1.3418e-14 -38.5336 66.4982 -66.5723 17.9172 -10.5979 -33.8347 9.46019 -62.3646 15.5706 -5.19824e-10 -1.12398e-09 1.05468e-09 -9.49796e-10 -1.81046e-09 1.7909e-09 -5.19825e-10 -1.12398e-09 1.0547e-09 -7.73091 5.47488 -0.417314 -5.19822e-10 -1.12399e-09 1.05469e-09 -2.90554 0.965183 -0.102902 -5.19828e-10 -1.12398e-09 1.05469e-09 -10.2786 0.731801 -0.0259123 -5.1982e-10 -1.12398e-09 1.05469e-09 -2.22167 -0.733487 0.20892 -2.03217e-16 0.0 -3.88251e-19 -7.88915 -36.5153 -2.89054 -0.486238 44.8972 0.675908 -2.4005 -15.9435 -4.03257 2.03217e-16 0.0 3.88251e-19 17.2832 -41.5453 2.63911 0.351596 42.2421 -0.72248 -0.619747 -8.38179 -5.11969
